<svg xmlns="http://www.w3.org/2000/svg" width="20" height="20" viewBox="0 0 20 20" fill="none">
  <path fill-rule="evenodd" clip-rule="evenodd" d="M6.66667 1.66665C6.66667 1.20641 6.29357 0.833313 5.83334 0.833313C5.3731 0.833313 5 1.20641 5 1.66665V2.49998H4.16667C3.50363 2.49998 2.86775 2.76337 2.3989 3.23221C1.93006 3.70105 1.66667 4.33694 1.66667 4.99998V15.8333C1.66667 16.4964 1.93006 17.1322 2.3989 17.6011C2.86775 18.0699 3.50363 18.3333 4.16667 18.3333H15.8333C16.4964 18.3333 17.1323 18.0699 17.6011 17.6011C18.0699 17.1322 18.3333 16.4964 18.3333 15.8333V4.99998C18.3333 4.33694 18.0699 3.70105 17.6011 3.23221C17.1323 2.76337 16.4964 2.49998 15.8333 2.49998H15.4167C14.9564 2.49998 14.5833 2.87308 14.5833 3.33331C14.5833 3.79355 14.9564 4.16665 15.4167 4.16665H15.8333C16.0543 4.16665 16.2663 4.25444 16.4226 4.41072C16.5789 4.567 16.6667 4.77897 16.6667 4.99998V7.49998H3.33334V4.99998C3.33334 4.77897 3.42114 4.567 3.57742 4.41072C3.7337 4.25444 3.94566 4.16665 4.16667 4.16665H5V4.99998C5 5.46022 5.3731 5.83331 5.83334 5.83331C6.29357 5.83331 6.66667 5.46022 6.66667 4.99998V1.66665ZM3.57742 16.4226C3.42114 16.2663 3.33334 16.0543 3.33334 15.8333V9.16665H16.6667V15.8333C16.6667 16.0543 16.5789 16.2663 16.4226 16.4226C16.2663 16.5788 16.0543 16.6666 15.8333 16.6666H4.16667C3.94566 16.6666 3.7337 16.5788 3.57742 16.4226Z" fill="#8A8C91"/>
  <path d="M13.3333 1.66665C13.3333 1.20641 12.9602 0.833313 12.5 0.833313C12.0398 0.833313 11.6667 1.20641 11.6667 1.66665V2.49998H8.75C8.28977 2.49998 7.91667 2.87308 7.91667 3.33331C7.91667 3.79355 8.28977 4.16665 8.75 4.16665H11.6667V4.99998C11.6667 5.46022 12.0398 5.83331 12.5 5.83331C12.9602 5.83331 13.3333 5.46022 13.3333 4.99998V1.66665Z" fill="#8A8C91"/>
</svg>