<svg xmlns="http://www.w3.org/2000/svg" width="20" height="20" viewBox="0 0 20 20" fill="none">
  <g clip-path="url(#clip0_0_1231)">
    <path fill-rule="evenodd" clip-rule="evenodd" d="M9.99999 6.66671C9.11594 6.66671 8.26809 7.0179 7.64297 7.64302C7.01785 8.26814 6.66666 9.11599 6.66666 10C6.66666 10.8841 7.01785 11.7319 7.64297 12.3571C8.26809 12.9822 9.11594 13.3334 9.99999 13.3334C10.884 13.3334 11.7319 12.9822 12.357 12.3571C12.9821 11.7319 13.3333 10.8841 13.3333 10C13.3333 9.11599 12.9821 8.26814 12.357 7.64302C11.7319 7.0179 10.884 6.66671 9.99999 6.66671ZM8.82148 8.82153C9.13404 8.50897 9.55797 8.33337 9.99999 8.33337C10.442 8.33337 10.8659 8.50897 11.1785 8.82153C11.4911 9.13409 11.6667 9.55801 11.6667 10C11.6667 10.4421 11.4911 10.866 11.1785 11.1786C10.8659 11.4911 10.442 11.6667 9.99999 11.6667C9.55797 11.6667 9.13404 11.4911 8.82148 11.1786C8.50892 10.866 8.33333 10.4421 8.33333 10C8.33333 9.55801 8.50892 9.13409 8.82148 8.82153Z" fill="#8A8C91"/>
    <path fill-rule="evenodd" clip-rule="evenodd" d="M9.15083 0.833374C8.77229 0.833374 8.4413 1.08851 8.34494 1.45458L7.92265 3.05891L6.58095 3.62451L5.5539 2.71077C5.22415 2.4174 4.72284 2.43202 4.41074 2.74412L2.74407 4.41078C2.44215 4.7127 2.41728 5.19398 2.68647 5.52541L3.58658 6.63367L3.03461 7.9916L1.47721 8.3552C1.1001 8.44323 0.833328 8.77946 0.833328 9.16671V10.8334C0.833328 11.2091 1.08482 11.5384 1.44734 11.6373L3.05707 12.0765L3.6242 13.4218L2.71138 14.4454C2.41737 14.7751 2.43171 15.2769 2.74407 15.5893L4.41074 17.256C4.71306 17.5583 5.19514 17.5828 5.52653 17.3126L6.6344 16.4095L7.95895 16.9544L8.35869 18.5374C8.45213 18.9074 8.78501 19.1667 9.16666 19.1667H10.8333C11.2148 19.1667 11.5476 18.9076 11.6412 18.5378L12.0419 16.9541L13.4108 16.3871C13.5486 16.5026 13.7066 16.6383 13.8638 16.7752C14.02 16.9112 14.1652 17.0394 14.2715 17.1337C14.3245 17.1808 14.3677 17.2193 14.3976 17.246L14.4429 17.2864C14.7724 17.5821 15.2762 17.569 15.5892 17.256L17.2559 15.5893C17.5626 15.2826 17.5828 14.7919 17.3022 14.4611L16.3945 13.3906L16.9562 12.0339L18.5429 11.6216C18.9102 11.5261 19.1667 11.1946 19.1667 10.815V9.16671C19.1667 8.78561 18.9081 8.45306 18.5388 8.3591L16.9619 7.95791L16.4016 6.60449L17.3031 5.538C17.5828 5.20712 17.5623 4.71713 17.2559 4.41078L15.5892 2.74412C15.2817 2.43652 14.7892 2.41727 14.4585 2.69991L13.3999 3.60477L11.9988 3.0287L11.5851 1.45485C11.4889 1.08865 11.1578 0.833374 10.7792 0.833374H9.15083ZM15.5346 14.9536L14.9645 15.5237L14.9583 15.5182C14.6505 15.2503 14.2541 14.9111 14.0305 14.7513C13.7965 14.584 13.4927 14.5492 13.2269 14.6593L11.0178 15.5743C10.7746 15.675 10.5933 15.8847 10.5288 16.1398L10.1846 17.5H9.81572L9.47213 16.1393C9.40749 15.8834 9.22536 15.6731 8.98118 15.5727L6.80952 14.6794C6.52674 14.563 6.20296 14.6109 5.96596 14.8041L5.05694 15.5451L4.47909 14.9673L5.21861 14.138C5.4327 13.8979 5.4895 13.5561 5.36455 13.2597L4.43539 11.0555C4.33597 10.8197 4.13372 10.6426 3.88682 10.5753L2.49999 10.1969V9.8279L3.83362 9.51655C4.09708 9.45504 4.31428 9.26947 4.41616 9.01884L5.31616 6.80467C5.43062 6.52306 5.38267 6.20146 5.19102 5.9655L4.45393 5.05795L5.03339 4.47848L5.86609 5.21931C6.10615 5.43288 6.44761 5.48941 6.7437 5.3646L8.94787 4.43543C9.1861 4.33501 9.36423 4.12969 9.43004 3.87967L9.79319 2.50004H10.1366L10.4924 3.85357C10.5588 4.10621 10.7398 4.3131 10.9814 4.41244L13.2373 5.33994C13.5265 5.45885 13.8579 5.40584 14.0956 5.20267L14.9557 4.46754L15.5355 5.04738L14.8011 5.91625C14.5998 6.15435 14.5483 6.48488 14.6675 6.77294L15.5817 8.98128C15.6822 9.22414 15.8915 9.40534 16.1462 9.47015L17.5 9.81457V10.1706L16.1354 10.5252C15.8825 10.5909 15.675 10.7715 15.575 11.0129L14.66 13.2229C14.5406 13.5114 14.5925 13.8425 14.7944 14.0807L15.5346 14.9536Z" fill="#8A8C91"/>
  </g>
  <defs>
    <clipPath id="clip0_0_1231">
      <rect width="20" height="20" fill="white"/>
    </clipPath>
  </defs>
</svg>