<svg width="20" height="20" viewBox="0 0 20 20" fill="none" xmlns="http://www.w3.org/2000/svg">
<path d="M10 2.41081C8.4529 2.41081 6.96917 3.02539 5.87521 4.11935C4.78125 5.21331 4.16667 6.69704 4.16667 8.24414C4.16667 10.6291 5.65167 12.93 7.28167 14.7125C8.11557 15.62 9.02494 16.4553 10 17.2091C10.975 16.4558 11.8844 15.6212 12.7183 14.7141C14.3483 12.93 15.8333 10.63 15.8333 8.24414C15.8333 6.69704 15.2188 5.21331 14.1248 4.11935C13.0308 3.02539 11.5471 2.41081 10 2.41081ZM10 19.2558L9.5275 18.9308L9.525 18.9291L9.52 18.925L9.50333 18.9133L9.44083 18.8691C9.09578 18.6183 8.7584 18.3571 8.42917 18.0858C7.58531 17.3926 6.79088 16.6413 6.05167 15.8375C4.34833 13.9741 2.5 11.275 2.5 8.24414C2.5 6.25502 3.29018 4.34736 4.6967 2.94084C6.10322 1.53432 8.01088 0.744141 10 0.744141C11.9891 0.744141 13.8968 1.53432 15.3033 2.94084C16.7098 4.34736 17.5 6.25502 17.5 8.24414C17.5 11.275 15.6517 13.975 13.9483 15.8375C12.9832 16.8872 11.9244 17.8467 10.785 18.7041C10.6901 18.7751 10.5942 18.8448 10.4975 18.9133L10.48 18.925L10.475 18.9291L10.4733 18.93L10 19.255V19.2558ZM10 6.57747C9.55797 6.57747 9.13405 6.75307 8.82149 7.06563C8.50893 7.37819 8.33333 7.80211 8.33333 8.24414C8.33333 8.68617 8.50893 9.11009 8.82149 9.42265C9.13405 9.73521 9.55797 9.91081 10 9.91081C10.442 9.91081 10.866 9.73521 11.1785 9.42265C11.4911 9.11009 11.6667 8.68617 11.6667 8.24414C11.6667 7.80211 11.4911 7.37819 11.1785 7.06563C10.866 6.75307 10.442 6.57747 10 6.57747ZM6.66667 8.24414C6.66667 7.36009 7.01786 6.51224 7.64298 5.88712C8.2681 5.262 9.11595 4.91081 10 4.91081C10.8841 4.91081 11.7319 5.262 12.357 5.88712C12.9821 6.51224 13.3333 7.36009 13.3333 8.24414C13.3333 9.1282 12.9821 9.97604 12.357 10.6012C11.7319 11.2263 10.8841 11.5775 10 11.5775C9.11595 11.5775 8.2681 11.2263 7.64298 10.6012C7.01786 9.97604 6.66667 9.1282 6.66667 8.24414Z" fill="#CCCCCC"/>
</svg>
