<svg width="205" height="36" viewBox="0 0 205 36" fill="none" xmlns="http://www.w3.org/2000/svg">
<path d="M63.4491 26.5943H51.1932V9.08942H54.6966V23.0909H63.4491V26.5943ZM81.8206 17.9151C81.8206 18.7452 81.7108 19.5468 81.4911 20.3199C81.2795 21.0849 80.9784 21.8051 80.5877 22.4805C80.1971 23.1478 79.7251 23.7582 79.1717 24.3116C78.6183 24.865 78.008 25.341 77.3407 25.7398C76.6734 26.1304 75.9531 26.4315 75.18 26.6431C74.4069 26.8629 73.6053 26.9727 72.7752 26.9727C71.9452 26.9727 71.1436 26.8629 70.3705 26.6431C69.6055 26.4315 68.8853 26.1304 68.2098 25.7398C67.5425 25.341 66.9321 24.865 66.3788 24.3116C65.8254 23.7582 65.3493 23.1478 64.9505 22.4805C64.5599 21.8051 64.2547 21.0849 64.035 20.3199C63.8234 19.5468 63.7176 18.7452 63.7176 17.9151C63.7176 17.085 63.8234 16.2834 64.035 15.5103C64.2547 14.7372 64.5599 14.017 64.9505 13.3497C65.3493 12.6824 65.8254 12.072 66.3788 11.5186C66.9321 10.9652 67.5425 10.4932 68.2098 10.1026C68.8853 9.71198 69.6055 9.41087 70.3705 9.19928C71.1436 8.97955 71.9452 8.86969 72.7752 8.86969C73.6053 8.86969 74.4069 8.97955 75.18 9.19928C75.9531 9.41087 76.6734 9.71198 77.3407 10.1026C78.008 10.4932 78.6183 10.9652 79.1717 11.5186C79.7251 12.072 80.1971 12.6824 80.5877 13.3497C80.9784 14.017 81.2795 14.7372 81.4911 15.5103C81.7108 16.2834 81.8206 17.085 81.8206 17.9151ZM78.3416 17.9151C78.3416 17.1501 78.1952 16.4299 77.9022 15.7545C77.6092 15.0709 77.2105 14.4809 76.7059 13.9844C76.2095 13.4799 75.6195 13.0811 74.9359 12.7881C74.2604 12.4952 73.5402 12.3487 72.7752 12.3487C72.0021 12.3487 71.2778 12.4952 70.6024 12.7881C69.9269 13.0811 69.3369 13.4799 68.8324 13.9844C68.3278 14.4809 67.929 15.0709 67.6361 15.7545C67.3431 16.4299 67.1966 17.1501 67.1966 17.9151C67.1966 18.6801 67.3431 19.4003 67.6361 20.0757C67.929 20.7431 68.3278 21.329 68.8324 21.8336C69.3369 22.3381 69.9269 22.7369 70.6024 23.0298C71.2778 23.3228 72.0021 23.4693 72.7752 23.4693C73.5402 23.4693 74.2604 23.3228 74.9359 23.0298C75.6195 22.7369 76.2095 22.3381 76.7059 21.8336C77.2105 21.329 77.6092 20.7431 77.9022 20.0757C78.1952 19.4003 78.3416 18.6801 78.3416 17.9151ZM98.056 24.8243C97.2422 25.516 96.3348 26.0491 95.3338 26.4234C94.3329 26.7896 93.2912 26.9727 92.2088 26.9727C91.3788 26.9727 90.5772 26.8629 89.804 26.6431C89.0391 26.4315 88.3229 26.1304 87.6556 25.7398C86.9883 25.341 86.3779 24.869 85.8246 24.3238C85.2712 23.7704 84.7992 23.1601 84.4085 22.4927C84.0179 21.8173 83.7127 21.093 83.493 20.3199C83.2814 19.5468 83.1756 18.7452 83.1756 17.9151C83.1756 17.085 83.2814 16.2875 83.493 15.5225C83.7127 14.7575 84.0179 14.0414 84.4085 13.3741C84.7992 12.6986 85.2712 12.0883 85.8246 11.543C86.3779 10.9896 86.9883 10.5176 87.6556 10.127C88.3229 9.73639 89.0391 9.43528 89.804 9.22369C90.5772 9.00397 91.3788 8.8941 92.2088 8.8941C93.2912 8.8941 94.3329 9.08128 95.3338 9.45563C96.3348 9.82184 97.2422 10.3508 98.056 11.0425L96.2249 14.0943C95.696 13.5572 95.0856 13.1381 94.3939 12.837C93.7022 12.5277 92.9738 12.3731 92.2088 12.3731C91.4439 12.3731 90.7236 12.5196 90.0482 12.8126C89.3809 13.1055 88.7949 13.5043 88.2904 14.0089C87.7858 14.5053 87.3871 15.0912 87.0941 15.7667C86.8011 16.434 86.6546 17.1501 86.6546 17.9151C86.6546 18.6882 86.8011 19.4125 87.0941 20.088C87.3871 20.7634 87.7858 21.3534 88.2904 21.858C88.7949 22.3625 89.3809 22.7613 90.0482 23.0543C90.7236 23.3472 91.4439 23.4937 92.2088 23.4937C92.6483 23.4937 93.0755 23.4408 93.4906 23.335C93.9056 23.2292 94.3003 23.0827 94.6747 22.8956V17.9151H98.056V24.8243ZM117.905 17.9151C117.905 18.7452 117.795 19.5468 117.575 20.3199C117.363 21.0849 117.062 21.8051 116.672 22.4805C116.281 23.1478 115.809 23.7582 115.256 24.3116C114.702 24.865 114.092 25.341 113.425 25.7398C112.757 26.1304 112.037 26.4315 111.264 26.6431C110.491 26.8629 109.689 26.9727 108.859 26.9727C108.029 26.9727 107.228 26.8629 106.454 26.6431C105.689 26.4315 104.969 26.1304 104.294 25.7398C103.626 25.341 103.016 24.865 102.463 24.3116C101.909 23.7582 101.433 23.1478 101.035 22.4805C100.644 21.8051 100.339 21.0849 100.119 20.3199C99.9074 19.5468 99.8016 18.7452 99.8016 17.9151C99.8016 17.085 99.9074 16.2834 100.119 15.5103C100.339 14.7372 100.644 14.017 101.035 13.3497C101.433 12.6824 101.909 12.072 102.463 11.5186C103.016 10.9652 103.626 10.4932 104.294 10.1026C104.969 9.71198 105.689 9.41087 106.454 9.19928C107.228 8.97955 108.029 8.86969 108.859 8.86969C109.689 8.86969 110.491 8.97955 111.264 9.19928C112.037 9.41087 112.757 9.71198 113.425 10.1026C114.092 10.4932 114.702 10.9652 115.256 11.5186C115.809 12.072 116.281 12.6824 116.672 13.3497C117.062 14.017 117.363 14.7372 117.575 15.5103C117.795 16.2834 117.905 17.085 117.905 17.9151ZM114.426 17.9151C114.426 17.1501 114.279 16.4299 113.986 15.7545C113.693 15.0709 113.294 14.4809 112.79 13.9844C112.293 13.4799 111.703 13.0811 111.02 12.7881C110.344 12.4952 109.624 12.3487 108.859 12.3487C108.086 12.3487 107.362 12.4952 106.686 12.7881C106.011 13.0811 105.421 13.4799 104.916 13.9844C104.412 14.4809 104.013 15.0709 103.72 15.7545C103.427 16.4299 103.281 17.1501 103.281 17.9151C103.281 18.6801 103.427 19.4003 103.72 20.0757C104.013 20.7431 104.412 21.329 104.916 21.8336C105.421 22.3381 106.011 22.7369 106.686 23.0298C107.362 23.3228 108.086 23.4693 108.859 23.4693C109.624 23.4693 110.344 23.3228 111.02 23.0298C111.703 22.7369 112.293 22.3381 112.79 21.8336C113.294 21.329 113.693 20.7431 113.986 20.0757C114.279 19.4003 114.426 18.6801 114.426 17.9151Z" fill="#414143"/>
<mask id="path-2-inside-1_0_1253" fill="white">
<rect y="0.713135" width="36.9672" height="35.2869" rx="5"/>
</mask>
<rect y="0.713135" width="36.9672" height="35.2869" rx="5" stroke="#D138DE" stroke-width="16" mask="url(#path-2-inside-1_0_1253)"/>
</svg>
