<svg xmlns="http://www.w3.org/2000/svg" width="17" height="16" viewBox="0 0 17 16" fill="none">
  <path fill-rule="evenodd" clip-rule="evenodd" d="M6.68267 2.00004C6.68267 1.76935 6.56341 1.55505 6.36735 1.43347C6.1713 1.31189 5.92633 1.30031 5.71968 1.40285C4.55233 1.9821 3.56997 2.87587 2.88331 3.98345C2.19676 5.09086 1.83312 6.36799 1.83334 7.67094C1.83231 9.24946 2.3652 10.7819 3.34539 12.0193C4.32558 13.2566 5.69543 14.126 7.23231 14.4862C8.76918 14.8465 10.3827 14.6763 11.8106 14.0034C13.2385 13.3305 14.3969 12.1945 15.0974 10.7799C15.1998 10.5732 15.188 10.3284 15.0664 10.1325C14.9448 9.93654 14.7306 9.81737 14.5 9.81737C11.7658 9.81737 9.84497 9.13952 8.60267 7.89715C7.36037 6.65477 6.68267 4.73396 6.68267 2.00004ZM4.01654 4.68601C4.38037 4.09915 4.84676 3.58644 5.39059 3.17077C5.56473 5.55822 6.29444 7.47445 7.65984 8.83993C9.02548 10.2057 10.9421 10.9355 13.3304 11.1095C12.7829 11.8272 12.0683 12.408 11.2423 12.7973C10.0865 13.3419 8.78051 13.4796 7.53658 13.1881C6.29264 12.8965 5.18388 12.1928 4.39052 11.1913C3.59716 10.1898 3.16584 8.94946 3.16667 7.67181C3.1664 6.61701 3.46075 5.5825 4.01654 4.68601Z" fill="#C0C0C0"/>
</svg>