<svg width="20" height="20" viewBox="0 0 20 20" fill="none" xmlns="http://www.w3.org/2000/svg">
<path d="M8.7 15C8.52761 15 8.36228 15.0658 8.24038 15.1831C8.11848 15.3003 8.05 15.4592 8.05 15.625C8.05 15.7908 8.11848 15.9497 8.24038 16.0669C8.36228 16.1842 8.52761 16.25 8.7 16.25H11.3C11.4724 16.25 11.6377 16.1842 11.7596 16.0669C11.8815 15.9497 11.95 15.7908 11.95 15.625C11.95 15.4592 11.8815 15.3003 11.7596 15.1831C11.6377 15.0658 11.4724 15 11.3 15H8.7ZM6.1 0C5.41044 0 4.74912 0.263392 4.26152 0.732233C3.77393 1.20107 3.5 1.83696 3.5 2.5V17.5C3.5 18.163 3.77393 18.7989 4.26152 19.2678C4.74912 19.7366 5.41044 20 6.1 20H13.9C14.5896 20 15.2509 19.7366 15.7385 19.2678C16.2261 18.7989 16.5 18.163 16.5 17.5V2.5C16.5 1.83696 16.2261 1.20107 15.7385 0.732233C15.2509 0.263392 14.5896 0 13.9 0H6.1ZM4.8 2.5C4.8 2.16848 4.93696 1.85054 5.18076 1.61612C5.42456 1.3817 5.75522 1.25 6.1 1.25H13.9C14.2448 1.25 14.5754 1.3817 14.8192 1.61612C15.063 1.85054 15.2 2.16848 15.2 2.5V17.5C15.2 17.8315 15.063 18.1495 14.8192 18.3839C14.5754 18.6183 14.2448 18.75 13.9 18.75H6.1C5.75522 18.75 5.42456 18.6183 5.18076 18.3839C4.93696 18.1495 4.8 17.8315 4.8 17.5V2.5Z" fill="#CCCCCC"/>
</svg>
