<svg xmlns="http://www.w3.org/2000/svg" width="16" height="16" viewBox="0 0 16 16" fill="none">
  <path d="M5.80474 5.13807C6.06509 4.87772 6.06509 4.45561 5.80474 4.19526C5.54439 3.93491 5.12228 3.93491 4.86193 4.19526L1.5286 7.5286C1.26825 7.78894 1.26825 8.21106 1.5286 8.4714L4.86193 11.8047C5.12228 12.0651 5.54439 12.0651 5.80474 11.8047C6.06509 11.5444 6.06509 11.1223 5.80474 10.8619L2.94281 8L5.80474 5.13807Z" fill="#C0C0C0"/>
  <path d="M11.1381 4.19526C10.8777 3.93491 10.4556 3.93491 10.1953 4.19526C9.93491 4.45561 9.93491 4.87772 10.1953 5.13807L13.0572 8L10.1953 10.8619C9.93491 11.1223 9.93491 11.5444 10.1953 11.8047C10.4556 12.0651 10.8777 12.0651 11.1381 11.8047L14.4714 8.4714C14.7318 8.21106 14.7318 7.78894 14.4714 7.5286L11.1381 4.19526Z" fill="#C0C0C0"/>
</svg>